<?xml version="1.0" standalone="no"?>
<svg width="567.429" height="418.35" viewBox="0 0 567.429 418.35" xmlns="http://www.w3.org/2000/svg" shape-rendering="crispEdges">
<title>
/Users/pagessin/Documents/Physics/Talks/2025/2025-05-12_odd_chain_tutorial/gist/figures/vertex_resz.svg
</title>
<desc>
Creator: ROOT Version 6.34.08
CreationDate: Wed Apr 30 15:57:21 2025</desc>
<defs>
</defs>
<rect x="0.5" y="0" width="566.929" height="417.85" fill="white"/>
<rect x="57.1929" y="41.785" width="453.543" height="334.28" fill="white"/>
<rect x="57.1929" y="41.785" width="453.543" height="334.28" fill="none" stroke="black"/>
<rect x="57.1929" y="41.785" width="453.543" height="334.28" fill="white"/>
<rect x="57.1929" y="41.785" width="453.543" height="334.28" fill="none" stroke="black"/>
<path d="M57.1929,376.06h 11.9354v 0.00548863h 11.9354v -0.0109773h 11.9354v 0.00548863h 11.9354v -0.0109773h 23.8707v -0.0274431h 11.9354v 0.0164659h 11.9354v -0.0603749h 11.9354v -0.0109773h 11.9354v -0.0603749h 11.9354v -0.181125h 11.9354v
 -0.504954h 11.9354v -1.28983h 11.9354v -3.32611h 11.9354v -13.255h 11.9354v -49.2h 11.9354v -129.005h 11.9354v -121.441h 11.9354v 75.6662h 11.9354v 145.586h 11.9354v 69.6452h 11.9354v 19.8853h 11.9354v 4.91232h 11.9354v 1.6411h 11.9354v 0.603749h
 11.9354v 0.170147h 11.9354v 0.170147h 11.9354v 0.0219545h 11.9354v 0.0493976h 11.9354v -0.0274431h 11.9354v 0.0164659h 11.9354v 0.00548863h 11.9354v -0.0219545h 11.9354v 0.0164659h 11.9354v 0.0164659h 11.9354v -0.00548863h 11.9354v 0.00548863h
 11.9354v 0.00548863" fill="none" stroke="#000099"/>
<path d="M57.1929,376.065h 453.543" fill="none" stroke="black"/>
<path d="M70.3846,366.037v 10.0284" fill="none" stroke="black"/>
<path d="M80.8542,371.051v 5.0142" fill="none" stroke="black"/>
<path d="M91.3238,371.051v 5.0142" fill="none" stroke="black"/>
<path d="M101.793,371.051v 5.0142" fill="none" stroke="black"/>
<path d="M112.263,371.051v 5.0142" fill="none" stroke="black"/>
<path d="M122.733,366.037v 10.0284" fill="none" stroke="black"/>
<path d="M133.202,371.051v 5.0142" fill="none" stroke="black"/>
<path d="M143.672,371.051v 5.0142" fill="none" stroke="black"/>
<path d="M154.141,371.051v 5.0142" fill="none" stroke="black"/>
<path d="M164.611,371.051v 5.0142" fill="none" stroke="black"/>
<path d="M175.081,366.037v 10.0284" fill="none" stroke="black"/>
<path d="M185.55,371.051v 5.0142" fill="none" stroke="black"/>
<path d="M196.02,371.051v 5.0142" fill="none" stroke="black"/>
<path d="M206.489,371.051v 5.0142" fill="none" stroke="black"/>
<path d="M216.959,371.051v 5.0142" fill="none" stroke="black"/>
<path d="M227.429,366.037v 10.0284" fill="none" stroke="black"/>
<path d="M237.898,371.051v 5.0142" fill="none" stroke="black"/>
<path d="M248.368,371.051v 5.0142" fill="none" stroke="black"/>
<path d="M258.838,371.051v 5.0142" fill="none" stroke="black"/>
<path d="M269.307,371.051v 5.0142" fill="none" stroke="black"/>
<path d="M279.777,366.037v 10.0284" fill="none" stroke="black"/>
<path d="M290.246,371.051v 5.0142" fill="none" stroke="black"/>
<path d="M300.716,371.051v 5.0142" fill="none" stroke="black"/>
<path d="M311.186,371.051v 5.0142" fill="none" stroke="black"/>
<path d="M321.655,371.051v 5.0142" fill="none" stroke="black"/>
<path d="M332.125,366.037v 10.0284" fill="none" stroke="black"/>
<path d="M342.594,371.051v 5.0142" fill="none" stroke="black"/>
<path d="M353.064,371.051v 5.0142" fill="none" stroke="black"/>
<path d="M363.534,371.051v 5.0142" fill="none" stroke="black"/>
<path d="M374.003,371.051v 5.0142" fill="none" stroke="black"/>
<path d="M384.473,366.037v 10.0284" fill="none" stroke="black"/>
<path d="M394.942,371.051v 5.0142" fill="none" stroke="black"/>
<path d="M405.412,371.051v 5.0142" fill="none" stroke="black"/>
<path d="M415.882,371.051v 5.0142" fill="none" stroke="black"/>
<path d="M426.351,371.051v 5.0142" fill="none" stroke="black"/>
<path d="M436.821,366.037v 10.0284" fill="none" stroke="black"/>
<path d="M447.29,371.051v 5.0142" fill="none" stroke="black"/>
<path d="M457.76,371.051v 5.0142" fill="none" stroke="black"/>
<path d="M468.23,371.051v 5.0142" fill="none" stroke="black"/>
<path d="M478.699,371.051v 5.0142" fill="none" stroke="black"/>
<path d="M489.169,366.037v 10.0284" fill="none" stroke="black"/>
<path d="M70.3846,366.037v 10.0284" fill="none" stroke="black"/>
<path d="M59.915,371.051v 5.0142" fill="none" stroke="black"/>
<path d="M489.169,366.037v 10.0284" fill="none" stroke="black"/>
<path d="M499.638,371.051v 5.0142" fill="none" stroke="black"/>
<path d="M510.108,371.051v 5.0142" fill="none" stroke="black"/>
<text xml:space="preserve" x="65.0052" y="389.898" fill="black" font-size="13.9172" font-family="Helvetica">0.2
</text>
<text xml:space="preserve" x="57.1212" y="389.898" fill="black" font-size="13.9172" font-family="Times">&#8722;
</text>
<text xml:space="preserve" x="113.026" y="389.898" fill="black" font-size="13.9172" font-family="Helvetica">0.15
</text>
<text xml:space="preserve" x="105.859" y="389.898" fill="black" font-size="13.9172" font-family="Times">&#8722;
</text>
<text xml:space="preserve" x="170.364" y="389.898" fill="black" font-size="13.9172" font-family="Helvetica">0.1
</text>
<text xml:space="preserve" x="163.196" y="389.898" fill="black" font-size="13.9172" font-family="Times">&#8722;
</text>
<text xml:space="preserve" x="217.668" y="389.898" fill="black" font-size="13.9172" font-family="Helvetica">0.05
</text>
<text xml:space="preserve" x="210.5" y="389.898" fill="black" font-size="13.9172" font-family="Times">&#8722;
</text>
<text xml:space="preserve" x="276.439" y="389.898" fill="black" font-size="13.9172" font-family="Helvetica">0
</text>
<text xml:space="preserve" x="318.726" y="389.898" fill="black" font-size="13.9172" font-family="Helvetica">0.05
</text>
<text xml:space="preserve" x="376.064" y="389.898" fill="black" font-size="13.9172" font-family="Helvetica">0.1
</text>
<text xml:space="preserve" x="423.367" y="389.898" fill="black" font-size="13.9172" font-family="Helvetica">0.15
</text>
<text xml:space="preserve" x="479.989" y="389.898" fill="black" font-size="13.9172" font-family="Helvetica">0.2
</text>
<text xml:space="preserve" x="452.753" y="404.233" fill="black" font-size="13.9172" font-family="Helvetica">resZ.resZ
</text>
<path d="M57.1929,376.065v -334.28" fill="none" stroke="black"/>
<path d="M70.7992,376.065h -13.6063" fill="none" stroke="black"/>
<path d="M63.9961,365.088h -6.80315" fill="none" stroke="black"/>
<path d="M63.9961,354.111h -6.80315" fill="none" stroke="black"/>
<path d="M63.9961,343.134h -6.80315" fill="none" stroke="black"/>
<path d="M63.9961,332.156h -6.80315" fill="none" stroke="black"/>
<path d="M70.7992,321.179h -13.6063" fill="none" stroke="black"/>
<path d="M63.9961,310.202h -6.80315" fill="none" stroke="black"/>
<path d="M63.9961,299.225h -6.80315" fill="none" stroke="black"/>
<path d="M63.9961,288.247h -6.80315" fill="none" stroke="black"/>
<path d="M63.9961,277.27h -6.80315" fill="none" stroke="black"/>
<path d="M70.7992,266.293h -13.6063" fill="none" stroke="black"/>
<path d="M63.9961,255.316h -6.80315" fill="none" stroke="black"/>
<path d="M63.9961,244.338h -6.80315" fill="none" stroke="black"/>
<path d="M63.9961,233.361h -6.80315" fill="none" stroke="black"/>
<path d="M63.9961,222.384h -6.80315" fill="none" stroke="black"/>
<path d="M70.7992,211.407h -13.6063" fill="none" stroke="black"/>
<path d="M63.9961,200.429h -6.80315" fill="none" stroke="black"/>
<path d="M63.9961,189.452h -6.80315" fill="none" stroke="black"/>
<path d="M63.9961,178.475h -6.80315" fill="none" stroke="black"/>
<path d="M63.9961,167.498h -6.80315" fill="none" stroke="black"/>
<path d="M70.7992,156.52h -13.6063" fill="none" stroke="black"/>
<path d="M63.9961,145.543h -6.80315" fill="none" stroke="black"/>
<path d="M63.9961,134.566h -6.80315" fill="none" stroke="black"/>
<path d="M63.9961,123.589h -6.80315" fill="none" stroke="black"/>
<path d="M63.9961,112.611h -6.80315" fill="none" stroke="black"/>
<path d="M70.7992,101.634h -13.6063" fill="none" stroke="black"/>
<path d="M63.9961,90.6569h -6.80315" fill="none" stroke="black"/>
<path d="M63.9961,79.6796h -6.80315" fill="none" stroke="black"/>
<path d="M63.9961,68.7024h -6.80315" fill="none" stroke="black"/>
<path d="M63.9961,57.7251h -6.80315" fill="none" stroke="black"/>
<path d="M70.7992,46.7479h -13.6063" fill="none" stroke="black"/>
<path d="M70.7992,46.7479h -13.6063" fill="none" stroke="black"/>
<text xml:space="preserve" x="47.0871" y="381.297" fill="black" font-size="13.9172" font-family="Helvetica">0
</text>
<text xml:space="preserve" x="16.9847" y="326.11" fill="black" font-size="13.9172" font-family="Helvetica">10000
</text>
<text xml:space="preserve" x="16.9847" y="271.639" fill="black" font-size="13.9172" font-family="Helvetica">20000
</text>
<text xml:space="preserve" x="16.9847" y="216.451" fill="black" font-size="13.9172" font-family="Helvetica">30000
</text>
<text xml:space="preserve" x="16.9847" y="161.263" fill="black" font-size="13.9172" font-family="Helvetica">40000
</text>
<text xml:space="preserve" x="16.9847" y="106.792" fill="black" font-size="13.9172" font-family="Helvetica">50000
</text>
<text xml:space="preserve" x="16.9847" y="51.6042" fill="black" font-size="13.9172" font-family="Helvetica">60000
</text>
<text xml:space="preserve" x="245.62" y="20.785" fill="black" font-size="18.4216" font-family="Helvetica">resZ.resZ
</text></svg>
